<svg width="17" height="17" viewBox="0 0 17 17" fill="none" xmlns="http://www.w3.org/2000/svg">
<path fill-rule="evenodd" clip-rule="evenodd" d="M8.50703 0C3.80286 0 0 3.66665 0 8.2028C0 11.8288 2.43663 14.8981 5.81687 15.9844C6.23949 16.0661 6.39429 15.8079 6.39429 15.5908C6.39429 15.4006 6.38036 14.7488 6.38036 14.0696C4.01391 14.5586 3.52112 13.0918 3.52112 13.0918C3.14081 12.1411 2.57732 11.8968 2.57732 11.8968C1.80279 11.3943 2.63374 11.3943 2.63374 11.3943C3.49291 11.4486 3.94374 12.2363 3.94374 12.2363C4.70417 13.4856 5.92953 13.1326 6.4225 12.9153C6.49285 12.3856 6.71835 12.0189 6.95778 11.8153C5.07037 11.6251 3.08457 10.919 3.08457 7.76813C3.08457 6.8718 3.42239 6.13847 3.95767 5.56814C3.87321 5.36448 3.57736 4.52231 4.04229 3.39515C4.04229 3.39515 4.76059 3.17782 6.38019 4.23715C7.0736 4.05759 7.7887 3.96625 8.50703 3.96548C9.22533 3.96548 9.95755 4.06065 10.6337 4.23715C12.2535 3.17782 12.9718 3.39515 12.9718 3.39515C13.4367 4.52231 13.1407 5.36448 13.0562 5.56814C13.6056 6.13847 13.9295 6.8718 13.9295 7.76813C13.9295 10.919 11.9437 11.6115 10.0422 11.8153C10.3521 12.0733 10.6196 12.5621 10.6196 13.3363C10.6196 14.4363 10.6057 15.3191 10.6057 15.5906C10.6057 15.8079 10.7606 16.0661 11.1831 15.9846C14.5633 14.8979 17 11.8288 17 8.2028C17.0139 3.66665 13.1971 0 8.50703 0Z" fill="white"/>
</svg>
