<svg width="222" height="64" viewBox="0 0 222 64" fill="none" xmlns="http://www.w3.org/2000/svg">
<path d="M90.9451 35.7137C90.44 39.2355 89.0513 41.9666 86.7787 43.9069C84.5195 45.8472 81.5957 46.8173 78.0075 46.8173C73.7149 46.8173 70.2529 45.4153 67.6216 42.6111C64.9902 39.807 63.6745 36.1191 63.6745 31.5474C63.6745 26.7897 65.0101 22.9955 67.6814 20.1647C70.3659 17.334 73.9541 15.9187 78.4461 15.9187C82.0077 15.9187 84.9115 16.8556 87.1575 18.7295C89.4167 20.6033 90.7058 23.1616 91.0248 26.4043H83.9679C83.6224 24.9956 82.9646 23.939 81.9944 23.2347C81.0376 22.517 79.775 22.1582 78.2068 22.1582C76.1071 22.1582 74.4458 22.9888 73.2232 24.65C72.0005 26.3113 71.3892 28.5838 71.3892 31.4677C71.3892 34.3383 71.9673 36.5709 73.1235 38.1657C74.2797 39.7472 75.9077 40.5379 78.0075 40.5379C79.6953 40.5379 81.0442 40.1259 82.0542 39.302C83.0775 38.478 83.7154 37.2819 83.9679 35.7137H90.9451ZM104.782 35.7935C104.237 36.139 103.28 36.458 101.911 36.7503C101.247 36.8832 100.742 36.9962 100.396 37.0892C99.5459 37.3284 98.9412 37.6341 98.5824 38.0062C98.2369 38.3783 98.0641 38.8767 98.0641 39.5013C98.0641 40.2721 98.3033 40.8967 98.7817 41.3752C99.2602 41.8403 99.8914 42.0729 100.676 42.0729C101.885 42.0729 102.868 41.7273 103.626 41.0363C104.397 40.3319 104.782 39.4149 104.782 38.2853V35.7935ZM112.596 46H105.36C105.28 45.6545 105.207 45.2956 105.141 44.9235C105.088 44.5514 105.035 44.166 104.981 43.7673C103.985 44.7641 102.922 45.5016 101.792 45.9801C100.676 46.4585 99.4462 46.6977 98.104 46.6977C96.0175 46.6977 94.3629 46.1263 93.1403 44.9833C91.9309 43.8271 91.3262 42.2722 91.3262 40.3186C91.3262 38.5245 91.798 37.0693 92.7416 35.953C93.6984 34.8233 95.1404 34.0326 97.0674 33.5807C98.1305 33.3415 99.4795 33.0824 101.114 32.8033C103.559 32.4046 104.782 31.8198 104.782 31.049V30.5307C104.782 29.9061 104.543 29.4343 104.064 29.1154C103.599 28.7831 102.902 28.617 101.971 28.617C100.961 28.617 100.157 28.823 99.5592 29.235C98.9744 29.647 98.609 30.2517 98.4628 31.049H91.9242C92.2698 28.6037 93.2798 26.783 94.9543 25.587C96.6421 24.3909 99.0343 23.7928 102.131 23.7928C104.058 23.7928 105.679 24.0254 106.995 24.4906C108.324 24.9557 109.36 25.6601 110.105 26.6036C110.623 27.2814 110.988 28.0921 111.201 29.0356C111.414 29.9659 111.52 31.4677 111.52 33.5409V41.7539C111.52 42.7374 111.606 43.5148 111.779 44.0863C111.965 44.6444 112.238 45.0099 112.596 45.1827V46ZM129.204 34.9363C129.204 33.1688 128.839 31.7733 128.108 30.75C127.377 29.7267 126.38 29.2151 125.118 29.2151C123.775 29.2151 122.732 29.7201 121.988 30.7301C121.244 31.7268 120.872 33.1289 120.872 34.9363C120.872 36.9032 121.217 38.3983 121.908 39.4216C122.613 40.4316 123.643 40.9366 124.998 40.9366C126.354 40.9366 127.39 40.425 128.108 39.4016C128.839 38.365 129.204 36.8766 129.204 34.9363ZM113.895 16.6363H120.951V27.0621C121.669 25.9458 122.579 25.1019 123.682 24.5304C124.799 23.959 126.068 23.6732 127.49 23.6732C130.135 23.6732 132.308 24.7497 134.009 26.9026C135.71 29.0556 136.56 31.8398 136.56 35.2552C136.56 38.6441 135.71 41.3885 134.009 43.4882C132.321 45.5747 130.121 46.618 127.41 46.618C126.015 46.618 124.792 46.3389 123.742 45.7807C122.706 45.2093 121.789 44.3321 120.991 43.1494V46H113.895V16.6363ZM158.411 24.3311V46H151.474V43.0098C150.623 44.2192 149.66 45.1096 148.583 45.681C147.52 46.2525 146.291 46.5382 144.895 46.5382C142.503 46.5382 140.702 45.9269 139.493 44.7043C138.284 43.4683 137.679 41.641 137.679 39.2222V24.3311H144.776V36.4513C144.776 38.2321 144.995 39.4614 145.434 40.1392C145.885 40.8037 146.663 41.136 147.766 41.136C149.002 41.136 149.899 40.7306 150.457 39.9199C151.028 39.096 151.314 37.7604 151.314 35.9131V24.3311H158.411ZM176.295 34.9363C176.295 33.1688 175.929 31.7733 175.198 30.75C174.467 29.7267 173.471 29.2151 172.208 29.2151C170.866 29.2151 169.823 29.7201 169.078 30.7301C168.334 31.7268 167.962 33.1289 167.962 34.9363C167.962 36.9032 168.308 38.3983 168.999 39.4216C169.703 40.4316 170.733 40.9366 172.088 40.9366C173.444 40.9366 174.481 40.425 175.198 39.4016C175.929 38.365 176.295 36.8766 176.295 34.9363ZM160.985 16.6363H168.042V27.0621C168.759 25.9458 169.67 25.1019 170.773 24.5304C171.889 23.959 173.158 23.6732 174.58 23.6732C177.225 23.6732 179.398 24.7497 181.099 26.9026C182.8 29.0556 183.651 31.8398 183.651 35.2552C183.651 38.6441 182.8 41.3885 181.099 43.4882C179.411 45.5747 177.212 46.618 174.501 46.618C173.105 46.618 171.882 46.3389 170.833 45.7807C169.796 45.2093 168.879 44.3321 168.082 43.1494V46H160.985V16.6363ZM196.89 48.4121C196.159 50.4321 195.534 51.8342 195.016 52.6183C194.497 53.4024 193.899 53.9473 193.222 54.2529C192.717 54.4656 192.099 54.6184 191.368 54.7114C190.65 54.8045 189.374 54.851 187.54 54.851H185.666V49.2294H187.042C188.358 49.2294 189.255 49.0633 189.733 48.731C190.225 48.3988 190.471 47.8273 190.471 47.0167C190.471 46.4718 190.145 45.3621 189.494 43.6876L189.414 43.5082L182.118 24.3311H189.753L193.82 39.1026L197.986 24.3311H205.541L196.89 48.4121Z" fill="white"/>
<path fill-rule="evenodd" clip-rule="evenodd" d="M48.8151 43.4076C48.16 42.4516 47.4875 41.2437 47.0186 39.8313C47.0186 39.8313 47.1897 41.8469 48.3309 44.1689C48.4973 43.9187 48.6588 43.6649 48.8151 43.4076ZM45.8836 47.2221C44.1113 45.4306 43.0575 43.9266 42.4386 42.8367C43.9264 42.7022 44.8986 42.1242 44.8986 42.1242C43.5013 42.4505 41.0886 42.201 41.0705 42.1991C40.024 42.0794 39.1117 41.9154 38.472 41.784C38.9528 40.7663 39.7448 40.0606 39.7448 40.0606C37.9182 40.6502 37.3939 42.3856 37.3939 42.3856C37.2521 42.7743 37.2272 43.0914 37.2233 43.2189C38.0702 46.0076 38.2059 49.5889 38.1331 52.4477C41.0847 51.2727 43.7219 49.4771 45.8836 47.2221ZM36.1829 53.1193C36.0929 51.2418 35.6801 49.3116 35.0391 47.4761L35.0389 47.4758C34.8793 47.0186 34.7053 46.5676 34.5188 46.1244C33.5523 42.7454 34.7541 39.1433 34.7541 39.1433C32.5557 41.1239 33.6255 45.3493 33.6445 45.4237C33.9493 48.2122 33.7392 51.3402 33.4615 53.7292C34.3892 53.5826 35.2976 53.378 36.1829 53.1193ZM31.4985 53.9498C31.0033 53.9831 30.5036 54 30 54C17.8497 54 8 44.1503 8 32C8 19.8497 17.8497 10 30 10C41.2795 10 50.5765 18.4886 51.851 29.426C51.1095 28.8592 50.228 28.3296 49.1796 27.8697C44.7792 21.4534 36.0981 23.2644 35.3245 30.9219C35.3245 30.9219 35.009 29.1242 35.4422 27.2714C34.0656 27.8142 31.4344 29.1652 30.3061 31.8613C29.8311 31.9586 28.6174 32.0859 27.5283 31.1898C28.2772 33.2528 29.6168 34.492 29.6168 34.492C24.5937 31.675 25.5214 23.4262 25.5214 23.4262L25.5227 23.3962L25.5195 23.3646L25.5195 23.3642C25.5174 23.3409 25.4323 22.3933 24.7445 21.5683C25.2167 21.1037 25.5098 20.4564 25.5098 19.7401C25.5098 19.6271 25.5024 19.5156 25.4883 19.4064C25.3176 19.3702 25.1407 19.3512 24.9593 19.3512C24.5297 19.3512 24.125 19.458 23.77 19.6466C23.7399 19.6664 22.7907 20.3009 22.1969 21.832C22.1969 21.832 22.2346 21.1712 22.4966 20.4021C21.3986 20.2569 19.9042 20.4501 17.8708 21.2688C17.2469 21.2885 13.7295 21.5171 14.3792 24.1739L14.4133 24.3128L14.5183 24.4078C14.9495 24.7926 19.127 26.0089 19.7897 25.9752C19.7897 25.9752 21.2014 26.4996 21.2341 28.6943C21.2341 28.6943 21.0625 27.3704 19.7024 26.6907C19.4026 29.6978 19.5042 36.8788 26.7474 39.4201C26.0109 37.7898 24.9856 36.5884 24.9856 36.5884C28.7523 40.2309 31.6816 48.3797 31.4985 53.9498ZM51.9116 30.0142C51.9245 30.1589 51.9361 30.304 51.9462 30.4495C51.5006 30.4201 51.0344 30.4299 50.5573 30.496C50.5573 30.496 51.1151 30.2644 51.9116 30.0142Z" fill="white"/>
</svg>
