<svg width="222" height="64" viewBox="0 0 222 64" fill="none" xmlns="http://www.w3.org/2000/svg">
<path d="M61.2898 22.9754C63.3573 24.6951 63.808 27.4493 64.2878 30.3868C64.6548 32.6342 65.042 35.0041 66.3253 36.9457C66.4336 36.9353 66.5434 36.93 66.6544 36.93C68.3146 36.93 69.6972 38.1224 70 39.701C69.4836 40.0173 68.8769 40.1997 68.2278 40.1997C67.5068 40.1997 66.8381 39.9747 66.2876 39.5909L66.2523 39.6286C66.1237 39.5071 66.0001 39.3836 65.8811 39.2586C65.7584 39.1414 65.6444 39.015 65.54 38.8808C62.3226 35.1244 62.5606 30.5615 60.9493 27.8308C61.2104 29.0622 61.1874 29.8713 61.1874 29.8786L61.1865 29.9366L61.1774 29.9859C61.1193 30.3029 61.0679 30.6277 61.0229 30.9588C61.0229 30.9588 59.1379 37.191 61.4825 44.2644C61.4825 44.2644 61.2572 42.0154 61.2874 39.6983C61.8602 42.7349 62.9479 45.6431 64.6183 47.8397C63.7831 50.8499 63.1386 54.5154 63.6519 57.608L63.717 58H61.2557H61.1349H58.9503C59.16 56.988 60.0028 56.2091 61.0439 56.0997C61.039 52.581 61.6881 48.9496 59.0286 46.1131C57.192 44.8103 55.7098 43.5791 54.5166 42.457C54.2853 42.2394 54.0646 42.0257 53.8545 41.8167C52.7198 40.6472 50.4049 37.9336 49.1507 34.1549C49.1507 34.1549 49.5864 39.2893 53.2285 43.6313C53.6364 45.4916 54.2725 47.2394 55.1695 48.7313C54.0544 51.529 53.0498 54.9521 53.137 58H48.8666C49.1957 57.2717 49.871 56.7495 50.6611 56.6198L50.7157 56.6097C50.9764 54.1377 51.5789 51.644 51.0981 49.2943C51.7038 50.0689 51.8418 50.974 51.8418 50.974C51.6627 47.376 49.1159 45.7841 49.1096 45.7801C45.7336 42.6696 43.8689 40.0733 42.8543 38.2867C44.8996 38.1017 46.2362 37.3071 46.2362 37.3071C44.3152 37.7556 40.9984 37.4127 40.9736 37.4101C39.5348 37.2456 38.2807 37.0201 37.4012 36.8394C38.0622 35.4403 39.151 34.4702 39.151 34.4702C36.6399 35.2807 35.9191 37.6665 35.9191 37.6665C35.7242 38.2008 35.69 38.6367 35.6846 38.8121C37.7969 45.7672 36.6909 56.3084 36.4943 57.9999H35.6041H34.5706H33.7355H31.4466C31.7518 56.9267 32.7732 56.1785 33.9253 56.2631C33.9779 56.267 34.03 56.2725 34.0814 56.2796L34.09 56.2207L34.1113 56.0678C34.1207 55.9975 34.1297 55.9274 34.1384 55.8569C34.1455 55.7986 34.1524 55.7401 34.159 55.6816C34.559 52.1372 33.9403 48.2681 32.6818 44.6647C32.4623 44.0362 32.223 43.4156 31.9666 42.8064C30.6379 38.1611 32.2901 33.2092 32.2901 33.2092C29.2678 35.9319 30.7385 41.7408 30.7647 41.843C31.4591 48.1967 30.2091 55.8326 29.8144 58H24.6948C24.9999 56.9268 26.0213 56.1785 27.1734 56.2631C27.2852 56.2713 27.3944 56.2871 27.5009 56.3098C29.0781 48.8759 24.7018 35.3453 18.8609 29.6967C18.8609 29.6967 20.2704 31.3484 21.2828 33.5897C11.3253 30.0961 11.1856 20.224 11.5978 16.09C13.4675 17.0243 13.7034 18.8444 13.7034 18.8444C13.6585 15.8272 11.7178 15.1063 11.7178 15.1063C10.8067 15.1526 5.06367 13.4806 4.47092 12.9515L4.32652 12.8209L4.27975 12.6299C3.38652 8.97756 8.22203 8.66328 9.0797 8.63622C11.8751 7.51062 13.9296 7.24505 15.439 7.4447C15.0789 8.50206 15.0271 9.41051 15.0271 9.41051C15.8434 7.30557 17.1483 6.43323 17.1896 6.40602C17.6777 6.14677 18.2341 6 18.8247 6C19.074 6 19.3172 6.02613 19.5519 6.07589C19.5713 6.22602 19.5814 6.37922 19.5814 6.53467C19.5814 7.51929 19.1785 8.40927 18.5294 9.04789C19.4836 10.1925 19.594 11.5088 19.5949 11.5173L19.5992 11.5608L19.5974 11.6021C19.5974 11.6021 18.322 22.9421 25.2275 26.8148C25.2275 26.8148 23.386 25.1112 22.3564 22.2751C23.8537 23.507 25.5222 23.332 26.1752 23.1982C27.7263 19.4917 31.3436 17.6345 33.236 16.8882C32.6405 19.4354 33.0743 21.9067 33.0743 21.9067C34.1377 11.3796 46.072 8.88993 52.1215 17.7107C53.9328 18.5054 55.3818 19.4513 56.5417 20.4598C55.1052 20.8689 54.0155 21.3212 54.0155 21.3212C57.8361 20.7919 61.1544 22.8886 61.2898 22.9754Z" fill="white"/>
<path d="M107.688 35.9375C107.292 38.6979 106.203 40.8385 104.422 42.3594C102.651 43.8802 100.359 44.6406 97.5469 44.6406C94.1823 44.6406 91.4688 43.5417 89.4062 41.3438C87.3438 39.1458 86.3125 36.2552 86.3125 32.6719C86.3125 28.9427 87.3594 25.9688 89.4531 23.75C91.5573 21.5312 94.3698 20.4219 97.8906 20.4219C100.682 20.4219 102.958 21.1562 104.719 22.625C106.49 24.0938 107.5 26.099 107.75 28.6406H102.219C101.948 27.5365 101.432 26.7083 100.672 26.1562C99.9219 25.5938 98.9323 25.3125 97.7031 25.3125C96.0573 25.3125 94.7552 25.9635 93.7969 27.2656C92.8385 28.5677 92.3594 30.349 92.3594 32.6094C92.3594 34.8594 92.8125 36.6094 93.7188 37.8594C94.625 39.099 95.901 39.7188 97.5469 39.7188C98.8698 39.7188 99.9271 39.3958 100.719 38.75C101.521 38.1042 102.021 37.1667 102.219 35.9375H107.688ZM118.533 36C118.106 36.2708 117.356 36.5208 116.283 36.75C115.762 36.8542 115.366 36.9427 115.096 37.0156C114.429 37.2031 113.955 37.4427 113.674 37.7344C113.403 38.026 113.267 38.4167 113.267 38.9062C113.267 39.5104 113.455 40 113.83 40.375C114.205 40.7396 114.7 40.9219 115.314 40.9219C116.262 40.9219 117.033 40.651 117.627 40.1094C118.231 39.5573 118.533 38.8385 118.533 37.9531V36ZM124.658 44H118.986C118.924 43.7292 118.866 43.4479 118.814 43.1562C118.773 42.8646 118.731 42.5625 118.689 42.25C117.908 43.0312 117.075 43.6094 116.189 43.9844C115.314 44.3594 114.351 44.5469 113.299 44.5469C111.663 44.5469 110.366 44.099 109.408 43.2031C108.46 42.2969 107.986 41.0781 107.986 39.5469C107.986 38.1406 108.356 37 109.096 36.125C109.846 35.2396 110.976 34.6198 112.486 34.2656C113.32 34.0781 114.377 33.875 115.658 33.6562C117.575 33.3438 118.533 32.8854 118.533 32.2812V31.875C118.533 31.3854 118.346 31.0156 117.971 30.7656C117.606 30.5052 117.059 30.375 116.33 30.375C115.538 30.375 114.908 30.5365 114.439 30.8594C113.981 31.1823 113.695 31.6562 113.58 32.2812H108.455C108.726 30.3646 109.517 28.9375 110.83 28C112.153 27.0625 114.028 26.5938 116.455 26.5938C117.965 26.5938 119.236 26.776 120.267 27.1406C121.309 27.5052 122.122 28.0573 122.705 28.7969C123.111 29.3281 123.398 29.9635 123.564 30.7031C123.731 31.4323 123.814 32.6094 123.814 34.2344V40.6719C123.814 41.4427 123.882 42.0521 124.017 42.5C124.163 42.9375 124.377 43.224 124.658 43.3594V44ZM137.676 35.3281C137.676 33.9427 137.389 32.849 136.816 32.0469C136.243 31.2448 135.462 30.8438 134.472 30.8438C133.42 30.8438 132.603 31.2396 132.019 32.0312C131.436 32.8125 131.144 33.9115 131.144 35.3281C131.144 36.8698 131.415 38.0417 131.957 38.8438C132.509 39.6354 133.316 40.0312 134.379 40.0312C135.441 40.0312 136.254 39.6302 136.816 38.8281C137.389 38.0156 137.676 36.849 137.676 35.3281ZM125.676 20.9844H131.207V29.1562C131.769 28.2812 132.483 27.6198 133.347 27.1719C134.222 26.724 135.217 26.5 136.332 26.5C138.405 26.5 140.108 27.3438 141.441 29.0312C142.775 30.7188 143.441 32.901 143.441 35.5781C143.441 38.2344 142.775 40.3854 141.441 42.0312C140.118 43.6667 138.394 44.4844 136.269 44.4844C135.176 44.4844 134.217 44.2656 133.394 43.8281C132.582 43.3802 131.863 42.6927 131.238 41.7656V44H125.676V20.9844ZM160.568 27.0156V44H155.131V41.6562C154.464 42.6042 153.709 43.3021 152.865 43.75C152.032 44.1979 151.068 44.4219 149.974 44.4219C148.099 44.4219 146.688 43.9427 145.74 42.9844C144.792 42.0156 144.318 40.5833 144.318 38.6875V27.0156H149.881V36.5156C149.881 37.9115 150.053 38.875 150.396 39.4062C150.75 39.9271 151.36 40.1875 152.224 40.1875C153.193 40.1875 153.896 39.8698 154.334 39.2344C154.782 38.5885 155.006 37.5417 155.006 36.0938V27.0156H160.568ZM174.586 35.3281C174.586 33.9427 174.299 32.849 173.726 32.0469C173.153 31.2448 172.372 30.8438 171.382 30.8438C170.33 30.8438 169.513 31.2396 168.929 32.0312C168.346 32.8125 168.054 33.9115 168.054 35.3281C168.054 36.8698 168.325 38.0417 168.867 38.8438C169.419 39.6354 170.226 40.0312 171.289 40.0312C172.351 40.0312 173.164 39.6302 173.726 38.8281C174.299 38.0156 174.586 36.849 174.586 35.3281ZM162.586 20.9844H168.117V29.1562C168.679 28.2812 169.393 27.6198 170.257 27.1719C171.132 26.724 172.127 26.5 173.242 26.5C175.315 26.5 177.018 27.3438 178.351 29.0312C179.685 30.7188 180.351 32.901 180.351 35.5781C180.351 38.2344 179.685 40.3854 178.351 42.0312C177.028 43.6667 175.304 44.4844 173.179 44.4844C172.086 44.4844 171.127 44.2656 170.304 43.8281C169.492 43.3802 168.773 42.6927 168.148 41.7656V44H162.586V20.9844ZM190.728 45.8906C190.155 47.474 189.666 48.5729 189.259 49.1875C188.853 49.8021 188.384 50.2292 187.853 50.4688C187.457 50.6354 186.973 50.7552 186.4 50.8281C185.838 50.901 184.838 50.9375 183.4 50.9375H181.931V46.5312H183.009C184.041 46.5312 184.744 46.401 185.119 46.1406C185.504 45.8802 185.697 45.4323 185.697 44.7969C185.697 44.3698 185.442 43.5 184.931 42.1875L184.869 42.0469L179.15 27.0156H185.134L188.322 38.5938L191.588 27.0156H197.509L190.728 45.8906Z" fill="white"/>
</svg>
