<svg width="102" height="90" viewBox="0 0 102 90" fill="none" xmlns="http://www.w3.org/2000/svg">
<g clip-path="url(#clip0_102_126)">
<path d="M27.55 74.9019H26.5875L21.7828 70.0973V69.1347L29.1278 61.7898H34.2164L34.895 62.4684V67.557L27.55 74.9019ZM21.7828 20.5598V19.5973L26.5875 14.7927H27.55L34.895 22.1376V27.2262L34.2164 27.9048H29.1278L21.7828 20.5598Z" fill="#05BDBA"/>
<path d="M64.0777 59.4151H57.0879L56.5041 58.8313V42.4684C56.5041 39.5574 55.36 37.301 51.8492 37.2221C50.0425 37.1747 47.9756 37.2221 45.7667 37.3089L45.4349 37.6482V58.8233L44.8511 59.4071H37.8614L37.2776 58.8233V30.8716L37.8614 30.2874H53.5927C59.7071 30.2874 64.6615 35.2417 64.6615 41.3562V58.8313L64.0777 59.4151Z" fill="#014847"/>
<path d="M28.5439 48.9381H0.583805L0 48.3543V41.3482L0.583805 40.7644H28.5439L29.1277 41.3482V48.3543L28.5439 48.9381ZM101.363 48.9381H73.403L72.8192 48.3543V41.3482L73.403 40.7644H101.363L101.947 41.3482V48.3543L101.363 48.9381ZM46.9418 21.5538V0.583805L47.5256 0H54.5316L55.1154 0.583805V21.5538L54.5316 22.1376H47.5256L46.9418 21.5538ZM46.9418 89.1187V68.1487L47.5256 67.5649H54.5316L55.1154 68.1487V89.1187L54.5316 89.7021H47.5256L46.9418 89.1187Z" fill="#05BDBA"/>
</g>
<defs>
<clipPath id="clip0_102_126">
<rect width="101.947" height="90" fill="white"/>
</clipPath>
</defs>
</svg>
